<?xml version="1.0" encoding="UTF-8" standalone="no"?>
<svg width="158px" height="188px" viewBox="0 0 158 188" version="1.1" xmlns="http://www.w3.org/2000/svg" xmlns:xlink="http://www.w3.org/1999/xlink" xmlns:sketch="http://www.bohemiancoding.com/sketch/ns">
    <!-- Generator: Sketch 3.4.2 (15855) - http://www.bohemiancoding.com/sketch -->
    <title>noun_580051</title>
    <desc>Created with Sketch.</desc>
    <defs>
        <linearGradient x1="50%" y1="0%" x2="50%" y2="100%" id="linearGradient-1">
            <stop stop-color="#4E2A5E" offset="0%"></stop>
            <stop stop-color="#745682" offset="100%"></stop>
        </linearGradient>
    </defs>
    <g id="Page-1" stroke="none" stroke-width="1" fill="none" fill-rule="evenodd" sketch:type="MSPage">
        <g id="noun_580051" sketch:type="MSLayerGroup">
            <path d="M155.95,111.39 C152.46,95.94 142.31,73.98 114.16,55.04 C117.91,52.58 120.2,49.48 120.2,45.71 L120.2,33.31 C120.2,29.75 118.07,24.71 107.89,20.9 C107.63,20.8 107.38,20.74 107.13,20.69 L107.13,12.57 C107.13,12.42 107.12,12.27 107.11,12.12 C106.62,3.94 92.92,0.26 79.33,0.26 C65.74,0.26 52.03,3.93 51.55,12.12 C51.53,12.27 51.52,12.42 51.52,12.57 L51.52,20.62 C40.72,24.44 38.44,29.62 38.44,33.3 L38.44,45.7 C38.44,49.56 40.83,52.71 44.73,55.19 C16.78,74.1 6.51,95.96 2.88,111.35 C0.66,120.75 0.58,128.85 1.02,134.49 C2.06,164.12 36.75,188 79.25,188 C120.77,188 154.84,165.21 157.36,136.52 C158.04,130.89 158.34,121.97 155.95,111.39 L155.95,111.39 Z M55.05,50.48 C48.56,48.31 47.11,46.07 47.09,45.71 L47.09,33.31 C47.1,33.04 47.99,31.6 51.52,29.94 L51.52,31.45 C51.52,39.95 65.48,43.76 79.32,43.76 C93.15,43.76 107.12,39.95 107.12,31.45 L107.12,29.94 C110.66,31.61 111.54,33.05 111.56,33.31 L111.56,45.71 C111.54,46.06 110.09,48.3 103.59,50.48 C97.14,52.64 88.52,53.83 79.32,53.83 C70.12,53.83 61.5,52.64 55.05,50.48 L55.05,50.48 Z M60.16,21.89 C65.39,23.92 72.37,24.88 79.32,24.88 C86.27,24.88 93.25,23.92 98.48,21.89 L98.48,31.01 C97.19,32.35 90.54,35.12 79.32,35.12 C68.11,35.12 61.45,32.35 60.16,31.01 L60.16,21.89 L60.16,21.89 Z M79.33,8.91 C89.41,8.91 95.81,11.15 97.94,12.58 C95.81,14.01 89.42,16.25 79.33,16.25 C69.24,16.25 62.85,14.01 60.72,12.58 C62.84,11.15 69.24,8.91 79.33,8.91 L79.33,8.91 Z M128.87,165.3 C115.53,174.37 97.91,179.36 79.25,179.36 C60.6,179.36 42.97,174.36 29.63,165.3 C19.7,158.55 13.21,150.23 10.75,141.29 C10.73,141.07 10.69,140.84 10.63,140.62 C10.62,140.57 9.98,138.17 9.65,134.1 C9.64,133.77 9.63,133.44 9.63,133.11 C9.63,132.78 9.59,132.46 9.52,132.15 C9.28,127.36 9.52,120.84 11.29,113.33 C16.33,91.96 30.81,73.78 54.31,59.3 C61.64,61.44 70.63,62.46 79.33,62.46 C88.17,62.46 97.3,61.4 104.69,59.19 C104.73,59.22 104.77,59.25 104.81,59.27 C128.15,73.64 142.49,91.67 147.42,112.84 C149.16,120.31 149.36,126.88 149.09,131.75 C148.95,132.18 148.87,132.63 148.87,133.1 C148.87,133.81 148.84,134.52 148.79,135.23 C148.4,138.55 147.88,140.5 147.86,140.57 C147.79,140.84 147.74,141.1 147.72,141.37 C145.24,150.28 138.76,158.57 128.87,165.3 L128.87,165.3 Z" id="Shape" fill="#323232" sketch:type="MSShapeGroup"></path>
            <path d="M135.37,104.48 L135.34,104.48 C131.75,95.41 108.04,88.4 79.32,88.4 C52.79,88.4 30.55,94.38 24.48,102.44 C18.66,114.03 18.27,124.44 18.79,130.57 C19.52,151.55 46.82,168.41 79.26,168.41 C111.02,168.41 137.85,152.25 139.65,131.88 C140.36,126.33 140.55,116.11 135.37,104.48 L135.37,104.48 Z M31.83,129.08 C31.44,124.52 31.73,116.77 36.06,108.15 C38,105.58 40.64,103.71 45.83,102.07 C42.06,111.69 41.83,120.12 42.28,125.39 C42.74,138.56 53.67,150.1 69.76,156.88 C48.85,154.71 32.32,143.14 31.83,129.08 L31.83,129.08 Z" id="Shape" fill="url(#linearGradient-1)" sketch:type="MSShapeGroup"></path>
        </g>
    </g>
</svg>